<svg width="40" height="40" viewBox="0 0 40 40" fill="none" xmlns="http://www.w3.org/2000/svg">
<path fill-rule="evenodd" clip-rule="evenodd" d="M23.376 9.59679C22.3219 6.24541 17.6789 6.24541 16.6247 9.59679C16.4744 10.0746 16.0603 10.3604 15.6338 10.3604C12.1187 10.3604 10.8469 14.8833 13.5341 16.9001C13.9044 17.1779 14.0782 17.6928 13.926 18.1766C13.4095 19.8186 14.0719 21.3546 15.202 22.2028C16.3379 23.0553 18.0065 23.2496 19.4014 22.2028C19.7614 21.9324 20.2394 21.9324 20.5994 22.2028C21.9942 23.2496 23.6629 23.0553 24.7987 22.2028C25.9289 21.3546 26.5912 19.8186 26.0749 18.1766C25.9225 17.6928 26.0964 17.1779 26.4667 16.9001C29.1539 14.8833 27.882 10.3604 24.367 10.3604C23.9405 10.3604 23.5264 10.0746 23.376 9.59679ZM15.6338 12.8604C17.1964 12.8604 18.545 11.8232 19.0095 10.3469C19.3297 9.32871 20.671 9.32871 20.9912 10.3469C21.4557 11.8232 22.8044 12.8604 24.367 12.8604C24.8504 12.8604 25.2112 13.1578 25.3579 13.6241C25.5055 14.0933 25.3849 14.5862 24.966 14.9006C23.727 15.8304 23.2275 17.4564 23.69 18.9268C23.8607 19.4696 23.6564 19.9343 23.2982 20.2033C22.9457 20.4678 22.5044 20.5066 22.1 20.2033C20.8509 19.2656 19.1499 19.2656 17.9007 20.2033C17.4964 20.5066 17.055 20.4678 16.7027 20.2033C16.3444 19.9343 16.14 19.4696 16.3108 18.9268C16.7732 17.4564 16.2737 15.8304 15.0348 14.9006C14.6159 14.5862 14.4953 14.0933 14.6429 13.6241C14.7896 13.1578 15.1503 12.8604 15.6338 12.8604Z" fill="#1272E8"/>
<path fill-rule="evenodd" clip-rule="evenodd" d="M20.0004 0.416626C11.9462 0.416626 5.41706 6.94581 5.41706 15C5.41706 16.9576 5.80342 18.8275 6.50477 20.5356C6.02076 21.096 5.57239 21.873 4.96876 22.9188L1.92546 28.19C1.54967 28.8406 1.2022 29.4423 1.00187 29.9403C0.80565 30.4281 0.55853 31.2741 1.10463 32.0571C1.65765 32.85 2.54536 32.897 3.07146 32.8708C3.60411 32.8443 4.28124 32.7111 5.00864 32.5678L6.32741 32.3085C7.05851 32.1646 7.49229 32.0818 7.81412 32.0596C7.96111 32.0495 8.04002 32.0563 8.07886 32.0628C8.09671 32.0658 8.10724 32.0693 8.10724 32.0693L8.11212 32.0716L8.11654 32.0748C8.11654 32.0748 8.12489 32.0821 8.13639 32.096C8.16147 32.1265 8.20682 32.1913 8.27156 32.3236C8.41331 32.6135 8.55836 33.0306 8.79937 33.7356L9.23406 35.0073C9.47377 35.709 9.69692 36.362 9.94034 36.8366C10.1807 37.3053 10.6653 38.0506 11.6285 38.133C12.5796 38.2145 13.1886 37.5775 13.513 37.1636C13.8441 36.7411 14.1914 36.1395 14.567 35.4886L17.5489 30.324C17.7317 30.0071 17.8985 29.7183 18.0482 29.4536C18.6874 29.5391 19.339 29.5833 20.0004 29.5833C20.5125 29.5833 21.0187 29.5568 21.5179 29.5051C21.6599 29.7556 21.8167 30.0271 21.9875 30.3233L24.9699 35.4886C25.3454 36.1395 25.6927 36.7411 26.0239 37.1636C26.3482 37.5775 26.9574 38.2145 27.9084 38.133C28.8715 38.0506 29.3562 37.3053 29.5965 36.8366C29.84 36.3621 30.063 35.709 30.3029 35.0075L30.7375 33.7356C30.9785 33.0306 31.1235 32.6135 31.2654 32.3236C31.33 32.1913 31.3754 32.1265 31.4005 32.096L31.4045 32.0911C31.4135 32.0806 31.4204 32.0748 31.4204 32.0748L31.4224 32.0731L31.4247 32.0716L31.4297 32.0693C31.4297 32.0693 31.4402 32.0658 31.458 32.0628C31.4969 32.0563 31.5759 32.0495 31.7227 32.0596C32.0445 32.0818 32.4784 32.1646 33.2095 32.3085L34.5282 32.5678C35.2557 32.7111 35.9329 32.8443 36.4654 32.8708C36.9915 32.897 37.8792 32.85 38.4322 32.0571C38.9784 31.2741 38.7312 30.4281 38.535 29.9403C38.3347 29.4423 37.9872 28.8408 37.6115 28.1901L34.5369 22.8646C34.0807 22.0738 33.711 21.433 33.333 20.9171C34.1372 19.1075 34.5837 17.1045 34.5837 15C34.5837 6.94581 28.0545 0.416626 20.0004 0.416626ZM7.91706 15C7.91706 8.32653 13.3269 2.91663 20.0004 2.91663C26.6739 2.91663 32.0837 8.32653 32.0837 15C32.0837 16.9978 31.5999 18.879 30.744 20.5361C29.0302 23.8546 25.8254 26.2751 22.0217 26.9151C21.3652 27.0256 20.69 27.0833 20.0004 27.0833C19.194 27.0833 18.4072 27.0045 17.647 26.8545C13.9219 26.1196 10.8073 23.6691 9.16621 20.3571C8.36692 18.7441 7.91706 16.9263 7.91706 15ZM7.06121 24.2946C7.37722 23.7473 7.61732 23.3338 7.81367 23.0125C9.61646 25.7493 12.3169 27.8435 15.4987 28.875L12.445 34.164C12.227 34.5418 12.0532 34.8411 11.908 35.0791C11.815 34.8261 11.7065 34.511 11.5714 34.116L11.1429 32.8623C10.9315 32.2438 10.7368 31.674 10.5173 31.2251C10.275 30.7298 9.93706 30.2385 9.36212 29.9066C8.78719 29.5746 8.19276 29.5276 7.64261 29.5655C7.14427 29.5998 6.55332 29.7161 5.91212 29.8423L4.61214 30.098C4.20237 30.1786 3.87529 30.2421 3.60969 30.288C3.74316 30.0433 3.91552 29.7431 4.13361 29.3655L7.06121 24.2946ZM24.1084 28.9965C27.317 28.0561 30.065 26.0438 31.9402 23.3753C32.0915 23.631 32.2672 23.9336 32.4757 24.2946L35.4034 29.3655C35.6214 29.7431 35.7937 30.0433 35.9272 30.288C35.6615 30.2421 35.3345 30.1786 34.9247 30.098L33.6249 29.8423C32.9837 29.7161 32.3927 29.5998 31.8944 29.5655C31.3442 29.5276 30.7497 29.5746 30.1747 29.9066C29.5999 30.2385 29.2619 30.7298 29.0197 31.2251C28.8002 31.674 28.6054 32.2438 28.394 32.8623L27.9655 34.116C27.8304 34.511 27.7219 34.8261 27.6289 35.0791C27.4837 34.8411 27.3099 34.5418 27.0919 34.164L24.1084 28.9965Z" fill="#1272E8"/>
</svg>
