<svg width="48" height="48" viewBox="0 0 48 48" fill="none" xmlns="http://www.w3.org/2000/svg">
<path d="M27 12.5H21C15.2 12.5 12.5 15.202 12.5 21V27C12.5 32.8 15.2 35.5 21 35.5H27C32.8 35.5 35.5 32.798 35.5 27V21C35.496 15.2 32.8 12.5 27 12.5ZM32.5 27C32.5 31.164 31.162 32.5 27 32.5H21C16.836 32.5 15.5 31.164 15.5 27V21C15.5 16.836 16.836 15.5 21 15.5H27C31.162 15.5 32.5 16.836 32.5 21V27Z" fill="#1272E8"/>
<path d="M41.496 25.496H44C44.3978 25.496 44.7794 25.338 45.0607 25.0567C45.342 24.7754 45.5 24.3938 45.5 23.996C45.5 23.5982 45.342 23.2166 45.0607 22.9353C44.7794 22.654 44.3978 22.496 44 22.496H41.496V19.2C41.496 18.612 41.474 18.05 41.44 17.504H44C44.3978 17.504 44.7794 17.346 45.0607 17.0647C45.342 16.7834 45.5 16.4018 45.5 16.004C45.5 15.6062 45.342 15.2246 45.0607 14.9433C44.7794 14.662 44.3978 14.504 44 14.504H41C40.6656 12.6364 39.7672 10.916 38.4256 9.57444C37.084 8.23285 35.3636 7.3344 33.496 7V4C33.496 3.60218 33.338 3.22064 33.0567 2.93934C32.7754 2.65804 32.3938 2.5 31.996 2.5C31.5982 2.5 31.2166 2.65804 30.9353 2.93934C30.654 3.22064 30.496 3.60218 30.496 4V6.556C29.948 6.52 29.384 6.5 28.794 6.5H25.496V4C25.496 3.60218 25.338 3.22064 25.0567 2.93934C24.7754 2.65804 24.3938 2.5 23.996 2.5C23.5982 2.5 23.2166 2.65804 22.9353 2.93934C22.654 3.22064 22.496 3.60218 22.496 4V6.5H19.2C18.614 6.5 18.054 6.52 17.51 6.556V4C17.51 3.60218 17.352 3.22064 17.0707 2.93934C16.7894 2.65804 16.4078 2.5 16.01 2.5C15.6122 2.5 15.2306 2.65804 14.9493 2.93934C14.668 3.22064 14.51 3.60218 14.51 4V6.986C12.6379 7.31913 10.9131 8.21859 9.5683 9.56299C8.22355 10.9074 7.32362 12.632 6.99 14.504H4C3.60218 14.504 3.22064 14.662 2.93934 14.9433C2.65804 15.2246 2.5 15.6062 2.5 16.004C2.5 16.4018 2.65804 16.7834 2.93934 17.0647C3.22064 17.346 3.60218 17.504 4 17.504H6.552C6.516 18.05 6.496 18.612 6.496 19.2V22.496H4C3.60218 22.496 3.22064 22.654 2.93934 22.9353C2.65804 23.2166 2.5 23.5982 2.5 23.996C2.5 24.3938 2.65804 24.7754 2.93934 25.0567C3.22064 25.338 3.60218 25.496 4 25.496H6.496V28.8C6.496 29.388 6.516 29.95 6.552 30.496H4C3.60218 30.496 3.22064 30.654 2.93934 30.9353C2.65804 31.2166 2.5 31.5982 2.5 31.996C2.5 32.3938 2.65804 32.7754 2.93934 33.0567C3.22064 33.338 3.60218 33.496 4 33.496H6.984C7.31762 35.368 8.21755 37.0926 9.5623 38.437C10.9071 39.7814 12.6319 40.6809 14.504 41.014V44C14.504 44.3978 14.662 44.7794 14.9433 45.0607C15.2246 45.342 15.6062 45.5 16.004 45.5C16.4018 45.5 16.7834 45.342 17.0647 45.0607C17.346 44.7794 17.504 44.3978 17.504 44V41.444C18.048 41.48 18.608 41.5 19.194 41.5H22.504V44C22.504 44.3978 22.662 44.7794 22.9433 45.0607C23.2246 45.342 23.6062 45.5 24.004 45.5C24.4018 45.5 24.7834 45.342 25.0647 45.0607C25.346 44.7794 25.504 44.3978 25.504 44V41.5H28.8C29.39 41.5 29.954 41.48 30.502 41.444V44C30.502 44.3978 30.66 44.7794 30.9413 45.0607C31.2226 45.342 31.6042 45.5 32.002 45.5C32.3998 45.5 32.7814 45.342 33.0627 45.0607C33.344 44.7794 33.502 44.3978 33.502 44V41C35.3685 40.6645 37.0875 39.7656 38.428 38.424C39.7684 37.0825 40.666 35.3628 41 33.496H44C44.3978 33.496 44.7794 33.338 45.0607 33.0567C45.342 32.7754 45.5 32.3938 45.5 31.996C45.5 31.5982 45.342 31.2166 45.0607 30.9353C44.7794 30.654 44.3978 30.496 44 30.496H41.44C41.474 29.95 41.496 29.388 41.496 28.8V25.496ZM38.496 28.8C38.496 35.962 35.958 38.5 28.794 38.5H19.2C12.04 38.5 9.502 35.962 9.502 28.8V24.02V23.996V23.97V19.2C9.502 12.038 12.04 9.5 19.2 9.5H28.8C35.964 9.5 38.502 12.038 38.502 19.2L38.496 28.8Z" fill="#1272E8"/>
</svg>
