<svg width="40" height="40" viewBox="0 0 40 40" fill="none" xmlns="http://www.w3.org/2000/svg">
<path fill-rule="evenodd" clip-rule="evenodd" d="M13.56 2.67104C13.9259 3.25647 13.7479 4.02766 13.1625 4.39354L6.49583 8.56021C5.9104 8.92609 5.13922 8.74812 4.77333 8.16271C4.40745 7.57727 4.58542 6.80609 5.17083 6.44021L11.8376 2.27354C12.423 1.90766 13.1941 2.08562 13.56 2.67104ZM26.44 2.67104C26.8058 2.08562 27.577 1.90766 28.1625 2.27354L34.8292 6.44021C35.4147 6.80609 35.5925 7.57729 35.2267 8.16271C34.8608 8.74812 34.0897 8.92609 33.5042 8.56021L26.8375 4.39354C26.252 4.02766 26.0742 3.25646 26.44 2.67104ZM20 7.91687C12.4061 7.91687 6.25 14.073 6.25 21.6669C6.25 29.2607 12.4061 35.4169 20 35.4169C27.5938 35.4169 33.75 29.2607 33.75 21.6669C33.75 14.073 27.5938 7.91687 20 7.91687ZM3.75 21.6669C3.75 12.6922 11.0254 5.41687 20 5.41687C28.9747 5.41687 36.25 12.6922 36.25 21.6669C36.25 30.6415 28.9747 37.9169 20 37.9169C11.0254 37.9169 3.75 30.6415 3.75 21.6669Z" fill="#1272E8"/>
<path fill-rule="evenodd" clip-rule="evenodd" d="M22.4989 14.3862C23.0442 14.9194 23.0653 15.8056 22.5458 16.3655L19.5455 19.6H23.6364C24.1818 19.6 24.6749 19.9338 24.8898 20.4486C25.1045 20.9632 25 21.56 24.6238 21.9654L19.4291 27.5654C18.9096 28.1254 18.0466 28.1471 17.5011 27.6138C16.9558 27.0805 16.9347 26.1944 17.4542 25.6345L20.4546 22.4H16.3637C15.8182 22.4 15.3252 22.0662 15.1103 21.5514C14.8954 21.0368 15 20.44 15.3762 20.0345L20.5709 14.4345C21.0904 13.8746 21.9535 13.853 22.4989 14.3862Z" fill="#1272E8"/>
</svg>
