<svg width="48" height="48" viewBox="0 0 48 48" fill="none" xmlns="http://www.w3.org/2000/svg">
<g clip-path="url(#clip0_30_269)">
<path d="M27.9 16.7081C27.7219 16.754 27.5063 16.8187 27.2672 16.9106C27.4585 14.9812 26.4188 13.3837 25.5938 12.6178C25.5225 12.5522 25.4457 12.4912 25.3716 12.4406C24.4791 11.8303 23.3269 11.8669 22.5 12.5334C22.0285 12.9094 20.3569 14.2969 18.6469 16.3415C15.9441 19.574 14.5735 22.7269 14.5735 25.7119C14.5735 30.9094 18.8016 35.1375 23.9991 35.1375C29.1966 35.1375 33.4247 30.9094 33.4247 25.7119C33.4247 23.1169 32.3785 20.3775 30.315 17.5687C29.7591 16.8122 28.8113 16.4737 27.901 16.7081H27.9ZM23.9982 31.575C20.7657 31.575 18.135 28.9453 18.135 25.7119C18.135 23.0625 19.8994 20.3962 21.3788 18.6272C22.2263 17.6137 23.0682 16.7812 23.7019 16.2C23.746 16.4719 23.715 16.7859 23.5379 17.1272C23.2266 17.7262 23.0119 18.3281 22.8994 18.9159C22.6688 20.1169 23.2885 21.3 24.4069 21.794C25.5244 22.2872 26.8154 21.9487 27.5475 20.97C27.6919 20.7769 27.856 20.6269 28.021 20.5106C29.2426 22.379 29.8604 24.1256 29.8604 25.7119C29.8604 28.9444 27.2307 31.575 23.9972 31.575H23.9982Z" fill="#1272E8"/>
<path d="M45.0852 20.1938V20.1656C45.0852 20.1656 45.0852 20.1591 45.0852 20.1563C44.9821 15.9703 44.5481 12.1706 43.8646 9.45096L43.8459 9.35908C43.8337 9.29627 43.8177 9.23439 43.7981 9.17252L43.7512 9.02439C43.4174 7.96408 42.7677 7.07908 41.8209 6.39189C41.1131 5.87908 40.4127 5.60721 40.0359 5.46189C35.789 3.81658 30.7856 1.91721 25.8796 0.304707C25.2121 0.0843945 24.5774 0.0206445 24.1621 0.00564453L24.0627 0.00189453C24.0215 1.95313e-05 23.9793 1.95313e-05 23.9381 0.00189453L23.8377 0.00564453C23.4234 0.0206445 22.7906 0.0843945 22.1277 0.302832C17.2152 1.91721 12.2109 3.81658 7.96306 5.46283C7.23275 5.74596 5.00993 6.60846 4.24962 9.02439L4.20275 9.17346C4.18306 9.23721 4.16618 9.3019 4.154 9.36658L4.139 9.44158C3.45368 12.1585 3.01962 15.9619 2.91556 20.1572V20.1666V20.2031C2.834 25.7466 3.33368 28.6941 3.76962 30.1922L3.81275 30.346C3.81743 30.3619 3.82212 30.3778 3.82681 30.3947C4.42587 32.3185 5.50868 34.275 7.04618 36.2081C8.62587 38.1938 10.7071 40.201 13.2281 42.1735C17.384 45.436 21.2821 47.355 21.3215 47.3747C21.3281 47.3775 21.3337 47.3803 21.3402 47.3831L21.3974 47.4103C21.4021 47.4131 21.4077 47.415 21.4124 47.4178C22.2299 47.8078 23.1009 48.0047 24.0018 48.0047C24.9027 48.0047 25.7821 47.805 26.6043 47.4103L26.6624 47.3831C26.6624 47.3831 26.6849 47.3719 26.7243 47.3531C27.1312 47.1497 30.8174 45.2785 34.7643 42.18C37.2918 40.2038 39.374 38.1947 40.9556 36.2072C42.4921 34.275 43.5749 32.3194 44.174 30.3947L44.2049 30.2953C44.2181 30.2531 44.2293 30.21 44.2396 30.1669L44.2434 30.1519C44.6756 28.6435 45.1659 25.7006 45.0862 20.2031C45.0862 20.2003 45.0862 20.1975 45.0862 20.1947L45.0852 20.1938ZM40.8084 29.2031C40.799 29.235 40.7906 29.266 40.7831 29.2988L40.7718 29.3344C40.304 30.8363 39.4274 32.4028 38.1665 33.9881C36.7593 35.7563 34.8759 37.5675 32.5659 39.3741C28.8937 42.2569 25.5065 43.9763 25.1371 44.161L25.0734 44.191C25.0734 44.191 25.0668 44.1938 25.064 44.1956C24.7256 44.3578 24.3674 44.4403 23.9981 44.4403C23.6287 44.4403 23.2762 44.3588 22.9406 44.1985C22.9387 44.1975 22.9284 44.1928 22.9256 44.1919C22.9246 44.1919 22.9227 44.191 22.9218 44.19L22.8787 44.1694C22.694 44.0775 19.1756 42.3122 15.4237 39.3675C13.1193 37.5656 11.2387 35.7563 9.83243 33.9891C8.57712 32.4103 7.70243 30.8522 7.23368 29.3578L7.19525 29.221C7.19337 29.2153 7.1915 29.2097 7.19056 29.2031C6.94868 28.3725 6.39368 25.8375 6.47525 20.2622V20.2378C6.57368 16.2928 6.97118 12.7641 7.59556 10.2966V10.2919C7.60681 10.2535 7.61618 10.2141 7.62368 10.1747L7.64618 10.0922C7.874 9.3694 8.59306 9.03752 9.24931 8.78252C13.454 7.15314 18.404 5.27439 23.2396 3.68439C23.4412 3.61783 23.7121 3.57283 23.9615 3.56346H23.999H24.0346C24.1556 3.56814 24.4677 3.58783 24.7631 3.68533C29.594 5.27252 34.5431 7.15221 38.7468 8.78065C39.404 9.03565 40.124 9.36752 40.3518 10.0913L40.3696 10.1485L40.3781 10.1897C40.3837 10.2197 40.3902 10.2488 40.3977 10.2778C41.0249 12.75 41.4243 16.2853 41.5218 20.235V20.2556C41.6034 25.8394 41.0493 28.3706 40.8074 29.1994L40.8084 29.2031Z" fill="#1272E8"/>
</g>
<defs>
<clipPath id="clip0_30_269">
<rect width="48" height="48" fill="white"/>
</clipPath>
</defs>
</svg>
