<svg width="200" height="200" viewBox="0 0 200 200" fill="none" xmlns="http://www.w3.org/2000/svg">
<path d="M100.853 20.1205C100.295 19.9598 99.7049 19.9598 99.1471 20.1205C94.4316 21.477 62.295 30.6447 44.6113 35.6885C37.7387 37.6487 33 43.9285 33 51.0752V91.8513C33 129.217 55.7122 162.831 90.4259 176.468L94.509 177.974C98.0548 179.282 101.951 179.297 105.498 177.992C107.189 177.37 108.807 176.769 109.574 176.468C144.152 162.884 167 129.364 167 91.8513V51.4599C167 44.3678 162.332 38.1222 155.529 36.1185C140.387 31.6592 114.105 23.9329 100.853 20.1205ZM160.792 91.8513C160.792 126.955 139.802 157.884 107.317 170.646L103.657 172.084C101.306 173.007 98.6939 173.007 96.3438 172.084L92.6832 170.646C60.1987 157.884 39.2087 126.955 39.2087 91.8513V51.3932C39.2087 46.9352 42.1597 43.0155 46.444 41.783L97.2354 27.1708C99.0419 26.6511 100.958 26.6511 102.765 27.1708L153.557 41.783C157.841 43.0155 160.792 46.9352 160.792 51.3932V91.8513Z" fill="#1272E8"/>
<path d="M96.0432 160.479C81.8286 155.015 69.7653 145.567 61.1578 133.157C52.5499 120.746 48 106.242 48 91.2122V58.6588C48 54.2137 50.9341 50.3023 55.2015 49.0583L97.2014 36.8157C99.029 36.283 100.971 36.283 102.798 36.8157L144.798 49.0581C149.066 50.302 152 54.2135 152 58.6585V91.2122C152 106.242 147.45 120.746 138.842 133.157C130.235 145.567 118.171 155.015 103.956 160.479L103.588 160.62C101.278 161.508 98.7213 161.508 96.4115 160.62L96.0432 160.479Z" fill="#C7E9FF"/>
<path d="M97.6199 55.6152C97.5759 55.6671 96.5184 56.9108 94.7977 59.0427C91.4805 63.1533 89.9015 68.4527 90.3518 73.9646C90.4034 74.5968 90.3452 75.2312 90.1737 75.903C87.7462 85.4115 83.9327 87.6355 83.8109 94.6433C82.2184 93.288 80.4524 91.5449 78.7843 89.3865C77.4059 87.6037 74.6437 87.8237 73.5665 89.8049C69.1221 97.9783 66.9618 104.358 66.9618 109.309C66.9618 127.526 81.7827 142.347 100 142.347C118.218 142.347 133.039 127.526 133.039 109.309C133.039 102.707 129.191 93.4911 121.275 81.1352C120.084 79.2758 117.406 79.2168 116.12 80.978C115.451 81.8943 114.779 82.6855 114.126 83.3665C114.683 75.7852 112.4 68.1649 107.526 61.9624C104.501 58.1112 102.465 55.7155 102.38 55.6152C101.132 54.1493 98.8671 54.1502 97.6199 55.6152ZM92.0002 128.097C92.0002 125.278 96.1418 119.123 100 114.375C103.859 119.123 108 125.278 108 128.097C108 132.508 104.411 136.097 100 136.097C95.589 136.097 92.0002 132.508 92.0002 128.097ZM102.612 65.823C107.846 72.4855 109.345 81.1843 106.624 89.0821C106.621 89.1149 105.809 90.9205 107.263 92.4362C108.076 93.2843 109.298 93.604 110.422 93.264C110.892 93.1221 114.374 91.9727 118.245 88.0933C125.24 99.6843 126.788 105.994 126.788 109.309C126.788 119.121 121.482 127.713 113.591 132.379C114.019 131.027 114.25 129.589 114.25 128.097C114.25 121.111 104.317 109.688 102.326 107.469C101.086 106.087 98.9165 106.084 97.6743 107.469C95.683 109.688 85.7502 121.11 85.7502 128.097C85.7502 129.589 85.9815 131.027 86.4087 132.379C78.518 127.713 73.2118 119.121 73.2118 109.309C73.2118 107.105 73.9227 103.24 76.9905 96.8243C81.7177 101.651 86.1696 103.851 86.3968 103.961C88.7524 105.106 91.3962 103.008 90.8087 100.451C88.2859 89.463 92.804 90.868 96.2299 77.4487C96.5705 76.114 96.6887 74.7708 96.5815 73.4562C96.2412 69.293 97.4018 65.7633 99.9999 62.5499C100.74 63.4627 101.625 64.5665 102.612 65.823Z" fill="#1272E8"/>
</svg>
