<svg width="33" height="36" viewBox="0 0 33 36" fill="none" xmlns="http://www.w3.org/2000/svg">
<path fill-rule="evenodd" clip-rule="evenodd" d="M16.2123 10C13.681 10 11.629 12.052 11.629 14.5833C11.629 16.6813 13.0385 18.45 14.9623 18.9942V24.5833C14.9623 25.2737 15.522 25.8333 16.2123 25.8333C16.9027 25.8333 17.4623 25.2737 17.4623 24.5833V18.9942C19.386 18.45 20.7957 16.6813 20.7957 14.5833C20.7957 12.052 18.7437 10 16.2123 10ZM14.129 14.5833C14.129 13.4327 15.0617 12.5 16.2123 12.5C17.3628 12.5 18.2957 13.4327 18.2957 14.5833C18.2957 15.734 17.3628 16.6667 16.2123 16.6667C15.0617 16.6667 14.129 15.734 14.129 14.5833Z" fill="#1272E8"/>
<path fill-rule="evenodd" clip-rule="evenodd" d="M12.1506 0C9.58096 0 7.49784 2.08312 7.49784 4.65278C7.49784 5.84172 6.53401 6.80555 5.34507 6.80555H4.83029C2.20354 6.80555 -0.136327 8.83788 0.00618949 11.6608C0.175389 15.0125 0.919806 20.2363 3.63507 25.1847C4.39556 26.5705 5.41121 27.932 6.50914 29.2005L6.59181 29.296C8.17126 31.121 9.48819 32.6427 10.904 33.6798C12.4268 34.7955 14.052 35.3512 16.2125 35.3512C18.373 35.3512 19.9983 34.7955 21.5212 33.6798C22.937 32.6427 24.2538 31.121 25.8333 29.296L25.916 29.2005C27.0138 27.932 28.0295 26.5705 28.79 25.1847C31.5957 20.0718 32.2952 14.2945 32.4332 10.6927C32.5408 7.88332 30.2177 5.83333 27.5762 5.83333H26.594C25.6735 5.83333 24.9273 5.08713 24.9273 4.16667C24.9273 1.86548 23.0618 0 20.7607 0H12.1506ZM9.99784 4.65278C9.99784 3.46383 10.9617 2.5 12.1506 2.5H20.7607C21.6812 2.5 22.4273 3.2462 22.4273 4.16667C22.4273 6.46785 24.2928 8.33333 26.594 8.33333H27.5762C28.9723 8.33333 29.9818 9.37183 29.935 10.597C29.8032 14.0382 29.1322 19.3643 26.5983 23.982C25.9502 25.1633 25.0525 26.378 24.0257 27.5643C22.3422 29.5095 21.2053 30.8122 20.0437 31.6632C18.9645 32.4538 17.8605 32.8512 16.2125 32.8512C14.5645 32.8512 13.4607 32.4538 12.3814 31.6632C11.2198 30.8122 10.083 29.5095 8.39942 27.5643C7.37262 26.378 6.47502 25.1633 5.82679 23.982C3.36264 19.4913 2.66209 14.686 2.50301 11.5347C2.44247 10.3358 3.43006 9.30555 4.83029 9.30555H5.34507C7.91472 9.30555 9.99784 7.22243 9.99784 4.65278Z" fill="#1272E8"/>
</svg>
