<svg width="48" height="48" viewBox="0 0 48 48" fill="none" xmlns="http://www.w3.org/2000/svg">
<g clip-path="url(#clip0_30_273)">
<path d="M15.5636 2.81229C16.3401 2.81229 16.9697 2.18271 16.9697 1.40614C16.9697 0.629577 16.3401 0 15.5636 0H7.12672C6.35016 0 5.72058 0.629577 5.72058 1.40614C5.72058 2.18271 6.35016 2.81229 7.12672 2.81229H15.5636Z" fill="#1272E8"/>
<path d="M0.00219727 7.03065C0.00219727 7.80722 0.631774 8.4368 1.40834 8.4368H9.93894C10.7155 8.4368 11.3451 7.80722 11.3451 7.03065C11.3451 6.25409 10.7155 5.62451 9.93894 5.62451H1.40834C0.631774 5.62451 0.00219727 6.25409 0.00219727 7.03065Z" fill="#1272E8"/>
<path d="M24.1019 43.8778C24.1024 43.8773 24.1029 43.8768 24.1033 43.8762C24.1039 43.8757 24.1045 43.8753 24.105 43.8747L32.3805 35.5473C35.0593 37.2669 38.725 37.0077 41.1384 34.5942L45.1155 30.617C48.9533 26.7793 48.9533 20.5347 45.1155 16.697L33.184 4.76539C29.3463 0.92765 23.1018 0.92765 19.264 4.76539L15.2868 8.74252C12.8399 11.1893 12.5938 14.9478 14.4354 17.656L10.7454 21.3461L10.4174 15.7242C10.3035 13.5306 8.49627 11.7254 6.20473 11.7254C3.92809 11.7254 2.08089 13.5229 1.98986 15.7715L0.0868824 32.4045C-0.381551 36.6629 1.08927 40.8448 4.12232 43.8778C9.61875 49.3742 18.6061 49.3738 24.1019 43.8778ZM17.2754 10.7312L21.2525 6.75396C23.9937 4.01273 28.4541 4.01273 31.1954 6.75396L43.1269 18.6855C45.8682 21.4268 45.8682 25.8872 43.1269 28.6284L39.1498 32.6055C37.867 33.8883 35.981 34.1639 34.4415 33.4732L39.0163 28.8696C39.8131 28.0729 40.2519 27.0135 40.2519 25.8867C40.2519 24.7599 39.8131 23.7006 39.0163 22.9039C38.6338 22.5213 38.1906 22.2212 37.7087 22.0128C38.6276 20.4024 38.4005 18.311 37.0278 16.9382C36.6396 16.5499 36.1934 16.2546 35.7174 16.0496C36.6383 14.4387 36.4128 12.3461 35.0392 10.9724C33.653 9.58621 31.561 9.37463 29.9615 10.2929C29.7566 9.81729 29.4614 9.37163 29.0735 8.98372C27.4287 7.33901 24.7524 7.33901 23.1077 8.98372L16.4864 15.605C15.7055 14.0511 15.9352 12.0712 17.2754 10.7312ZM2.88164 32.7181C4.91605 14.9173 4.79587 16.0296 4.79896 15.9092C4.81743 15.1511 5.43622 14.5378 6.20463 14.5378C6.94961 14.5378 7.56972 15.1168 7.60937 15.8791L8.12027 24.6379C8.15252 25.1908 8.5064 25.6733 9.02404 25.8703C9.54169 26.0672 10.1267 25.942 10.5183 25.5503L25.0962 10.9725C25.6446 10.4244 26.5366 10.4243 27.0847 10.9725C27.6328 11.5207 27.6329 12.4125 27.0851 12.9608C26.0797 13.9662 20.9085 19.1374 19.1305 20.9154C18.5813 21.4646 18.5813 22.3548 19.1305 22.904C19.6795 23.4531 20.5698 23.4531 21.119 22.904C24.8221 19.2009 27.4007 16.6224 31.062 12.961C31.6117 12.4114 32.5009 12.4114 33.0505 12.961C33.5987 13.5093 33.5987 14.4014 33.0505 14.9496C32.3907 15.6095 23.7911 24.2091 23.1076 24.8925C22.5585 25.4416 22.5585 26.332 23.1076 26.8811C23.6566 27.4303 24.547 27.4303 25.0962 26.8811C28.0365 23.9408 30.2703 21.707 33.0505 18.9267C33.6002 18.3771 34.4895 18.3772 35.0391 18.9267C35.5885 19.4763 35.5887 20.3657 35.0391 20.9153L27.0847 28.8697C26.5356 29.4187 26.5355 30.3091 27.0847 30.8582C27.6338 31.4074 28.5242 31.4074 29.0733 30.8582L35.0391 24.8925C35.5874 24.3441 36.4795 24.3441 37.0278 24.8925C37.5685 25.4333 37.5869 26.3217 37.0247 26.8842C33.6965 30.2119 26.2511 37.7029 22.1123 41.8903C17.7002 46.3011 10.5225 46.3007 6.11089 41.8893C3.68445 39.4627 2.5077 36.1178 2.88164 32.7181Z" fill="#1272E8"/>
<path d="M46.5925 2.81229H45.1863V1.40614C45.1863 0.629577 44.5568 0 43.7802 0C43.0036 0 42.3741 0.629577 42.3741 1.40614V2.81229H40.9679C40.1913 2.81229 39.5618 3.44186 39.5618 4.21843C39.5618 4.99499 40.1913 5.62457 40.9679 5.62457H42.3741V7.03071C42.3741 7.80728 43.0036 8.43686 43.7802 8.43686C44.5568 8.43686 45.1863 7.80728 45.1863 7.03071V5.62457H46.5925C47.369 5.62457 47.9986 4.99499 47.9986 4.21843C47.9986 3.44186 47.369 2.81229 46.5925 2.81229Z" fill="#1272E8"/>
<path d="M39.468 43.7779C39.468 43.0013 38.8384 42.3717 38.0618 42.3717H36.6557V40.9656C36.6557 40.189 36.0261 39.5594 35.2496 39.5594C34.473 39.5594 33.8434 40.189 33.8434 40.9656V42.3717H32.4373C31.6607 42.3717 31.0311 43.0013 31.0311 43.7779C31.0311 44.5544 31.6607 45.184 32.4373 45.184H33.8434V46.5902C33.8434 47.3667 34.473 47.9963 35.2496 47.9963C36.0261 47.9963 36.6557 47.3667 36.6557 46.5902V45.184H38.0618C38.8384 45.184 39.468 44.5544 39.468 43.7779Z" fill="#1272E8"/>
</g>
<defs>
<clipPath id="clip0_30_273">
<rect width="48" height="48" fill="white"/>
</clipPath>
</defs>
</svg>
