<svg width="15" height="16" viewBox="0 0 15 16" fill="none" xmlns="http://www.w3.org/2000/svg">
<path d="M6.24255 2.09375L6.9613 1.40625C7.10714 1.26042 7.28422 1.1875 7.49255 1.1875C7.70089 1.1875 7.87797 1.26042 8.0238 1.40625L14.0863 7.46875C14.2321 7.61458 14.3051 7.79167 14.3051 8C14.3051 8.20833 14.2321 8.38542 14.0863 8.53125L8.0238 14.5938C7.87797 14.7396 7.70089 14.8125 7.49255 14.8125C7.28422 14.8125 7.10714 14.7396 6.9613 14.5938L6.24255 13.9062C6.09672 13.7604 6.02901 13.5833 6.03943 13.375C6.04985 13.1667 6.12797 12.9896 6.2738 12.8438L10.0238 9.25H1.05505C0.84672 9.25 0.669637 9.17708 0.523804 9.03125C0.37797 8.88542 0.305054 8.70833 0.305054 8.5V7.5C0.305054 7.29167 0.37797 7.11458 0.523804 6.96875C0.669637 6.82292 0.84672 6.75 1.05505 6.75H10.0238L6.2738 3.15625C6.12797 3.01042 6.04985 2.83333 6.03943 2.625C6.02901 2.41667 6.09672 2.23958 6.24255 2.09375Z" fill="white"/>
</svg>
