<svg width="80" height="80" viewBox="0 0 80 80" fill="none" xmlns="http://www.w3.org/2000/svg">
<path d="M39.9993 75.8336C37.9993 75.8336 36.0327 75.3669 34.4327 74.4669L18.6659 65.3669C12.1326 60.9669 11.6992 60.1669 11.6992 53.2669V36.7336C11.6992 29.8334 12.1326 29.0334 18.5326 24.7334L34.466 15.5334C37.6327 13.7001 42.3993 13.7001 45.566 15.5334L61.3327 24.6334C67.866 29.0334 68.2993 29.8334 68.2993 36.7336V53.2669C68.2993 60.1669 67.866 60.9669 61.466 65.2669L45.5327 74.4669C43.966 75.4002 41.966 75.8336 39.9993 75.8336ZM39.9993 19.1668C38.866 19.1668 37.7327 19.4001 36.9327 19.8668L21.1659 28.9668C16.6992 32.0001 16.6992 32.0001 16.6992 36.7336V53.2669C16.6992 58.0002 16.6992 58.0002 21.3326 61.1336L36.966 70.1336C38.566 71.0669 41.466 71.0669 43.066 70.1336L58.8327 61.0336C63.2993 58.0002 63.2993 58.0002 63.2993 53.2669V36.7336C63.2993 32.0001 63.2993 32.0001 58.666 28.8668L43.0327 19.8668C42.266 19.4001 41.1327 19.1668 39.9993 19.1668Z" fill="#ACCCF3"/>
<path d="M58.3333 27.9333C56.9666 27.9333 55.8333 26.8 55.8333 25.4333V16.6666C55.8333 11.4 53.6 9.16663 48.3333 9.16663H31.6666C26.4 9.16663 24.1666 11.4 24.1666 16.6666V25.2C24.1666 26.5666 23.0333 27.7 21.6666 27.7C20.3 27.7 19.1666 26.6 19.1666 25.2V16.6666C19.1666 8.59996 23.6 4.16663 31.6666 4.16663H48.3333C56.4 4.16663 60.8333 8.59996 60.8333 16.6666V25.4333C60.8333 26.8 59.7 27.9333 58.3333 27.9333Z" fill="#ACCCF3"/>
<path d="M45.434 58.767C44.734 58.767 44.0006 58.6337 43.2673 58.3337L40.0006 57.067L36.7339 58.367C34.9673 59.067 33.1674 58.9003 31.8341 57.9337C30.5007 56.967 29.8007 55.3003 29.9007 53.4003L30.1007 49.9003L27.8674 47.2003C26.6674 45.7003 26.2674 43.967 26.8008 42.367C27.3008 40.8003 28.6674 39.6003 30.5007 39.1337L33.9006 38.267L35.8006 35.3003C37.834 32.1004 42.2006 32.1004 44.2339 35.3003L46.134 38.267L49.5339 39.1337C51.3673 39.6003 52.7339 40.8003 53.2339 42.367C53.7339 43.9337 53.3339 45.7003 52.1339 47.167L49.9006 49.867L50.1006 53.367C50.2006 55.267 49.5006 56.9003 48.1673 57.9003C47.3673 58.467 46.434 58.767 45.434 58.767ZM31.7341 44.0003L33.9673 46.7003C34.7339 47.6003 35.1673 49.0337 35.1006 50.2003L34.9006 53.7003L38.1673 52.4003C39.2673 51.967 40.734 51.967 41.834 52.4003L45.1006 53.7003L44.9006 50.2003C44.8339 49.0337 45.2673 47.6337 46.0339 46.7003L48.2673 44.0003L44.8673 43.1337C43.7339 42.8337 42.5339 41.967 41.9006 41.0003L40.0339 38.067L38.1339 41.0003C37.5006 42.0003 36.3006 42.867 35.1673 43.167L31.7341 44.0003Z" fill="#ACCCF3"/>
</svg>
