<svg width="40" height="40" viewBox="0 0 40 40" fill="none" xmlns="http://www.w3.org/2000/svg">
<path fill-rule="evenodd" clip-rule="evenodd" d="M15.1 16.8833C15.1 14.1763 17.2929 11.9833 20 11.9833C22.707 11.9833 24.9 14.1763 24.9 16.8833C24.9 19.5904 22.707 21.7833 20 21.7833C17.2929 21.7833 15.1 19.5904 15.1 16.8833ZM20 14.4833C18.6737 14.4833 17.6 15.557 17.6 16.8833C17.6 18.2097 18.6737 19.2833 20 19.2833C21.3263 19.2833 22.4 18.2097 22.4 16.8833C22.4 15.557 21.3263 14.4833 20 14.4833Z" fill="#1272E8"/>
<path fill-rule="evenodd" clip-rule="evenodd" d="M22.7795 27.2315C21.4209 25.2038 18.3821 25.2651 17.1256 27.3869C16.7739 27.9809 16.0072 28.1773 15.4131 27.8256C14.8191 27.4738 14.6227 26.7071 14.9745 26.1131C17.2243 22.3139 22.7144 22.298 25.002 26.0683C25.1207 26.2638 25.1834 26.488 25.1834 26.7167V26.75C25.1834 27.4404 24.6237 28 23.9334 28C23.4136 28 22.968 27.6828 22.7795 27.2315Z" fill="#1272E8"/>
<path fill-rule="evenodd" clip-rule="evenodd" d="M18.6333 5C18.6333 4.30964 19.1929 3.75 19.8833 3.75C28.9146 3.75 36.25 11.0173 36.25 20C36.25 28.9827 28.9146 36.25 19.8833 36.25C19.1929 36.25 18.6333 35.6904 18.6333 35C18.6333 34.3096 19.1929 33.75 19.8833 33.75C27.552 33.75 33.75 27.584 33.75 20C33.75 12.416 27.552 6.25 19.8833 6.25C19.1929 6.25 18.6333 5.69036 18.6333 5Z" fill="#1272E8"/>
<path fill-rule="evenodd" clip-rule="evenodd" d="M9.20929 30.6796C9.65316 30.1509 10.4416 30.0821 10.9704 30.526C12.1999 31.5582 13.62 32.3545 15.1438 32.9086C15.7926 33.1445 16.1273 33.8617 15.8913 34.5105C15.6554 35.1593 14.9382 35.494 14.2894 35.2581C12.5132 34.6122 10.8334 33.6752 9.36294 32.4407C8.8342 31.9968 8.76541 31.2084 9.20929 30.6796Z" fill="#1272E8"/>
<path fill-rule="evenodd" clip-rule="evenodd" d="M15.8913 5.48943C16.1273 6.13822 15.7926 6.85542 15.1438 7.09135C13.6264 7.64311 12.2018 8.45541 10.9634 9.4798C10.4314 9.91981 9.64348 9.84528 9.20346 9.31332C8.76345 8.78136 8.83799 7.99342 9.36994 7.55341C10.8315 6.34446 12.5068 5.39011 14.2894 4.74186C14.9382 4.50594 15.6554 4.84064 15.8913 5.48943Z" fill="#1272E8"/>
<path fill-rule="evenodd" clip-rule="evenodd" d="M7.42904 11.4198C8.02559 11.7673 8.22754 12.5325 7.88009 13.1291C7.06918 14.5214 6.50511 16.0484 6.2313 17.6152C6.11246 18.2952 5.46483 18.7502 4.78478 18.6313C4.10473 18.5125 3.64978 17.8649 3.76862 17.1848C4.09481 15.3183 4.76403 13.5119 5.71979 11.8709C6.06723 11.2743 6.83249 11.0724 7.42904 11.4198Z" fill="#1272E8"/>
<path fill-rule="evenodd" clip-rule="evenodd" d="M4.78478 21.3687C5.46483 21.2498 6.11246 21.7048 6.2313 22.3848C6.50511 23.9516 7.06918 25.4786 7.88009 26.8709C8.22754 27.4675 8.02559 28.2327 7.42904 28.5802C6.83249 28.9276 6.06723 28.7257 5.71979 28.1291C4.76403 26.4881 4.09481 24.6817 3.76862 22.8152C3.64978 22.1351 4.10473 21.4875 4.78478 21.3687Z" fill="#1272E8"/>
</svg>
